<?xml version="1.0" encoding="UTF-8" standalone="no"?>
<svg
   xmlns:dc="http://purl.org/dc/elements/1.1/"
   xmlns:cc="http://creativecommons.org/ns#"
   xmlns:rdf="http://www.w3.org/1999/02/22-rdf-syntax-ns#"
   xmlns:svg="http://www.w3.org/2000/svg"
   xmlns="http://www.w3.org/2000/svg"
   xmlns:xlink="http://www.w3.org/1999/xlink"
   xmlns:sodipodi="http://sodipodi.sourceforge.net/DTD/sodipodi-0.dtd"
   xmlns:inkscape="http://www.inkscape.org/namespaces/inkscape"
   height="32"
   width="32"
   id="svg2"
   version="1.1"
   inkscape:version="1.0.2 (e86c870879, 2021-01-15)"
   sodipodi:docname="thecalculator.svg">
  <metadata
     id="metadata9">
    <rdf:RDF>
      <cc:Work
         rdf:about="">
        <dc:format>image/svg+xml</dc:format>
        <dc:type
           rdf:resource="http://purl.org/dc/dcmitype/StillImage" />
        <dc:title></dc:title>
      </cc:Work>
    </rdf:RDF>
  </metadata>
  <defs
     id="defs7">
    <linearGradient
       inkscape:collect="always"
       xlink:href="#linearGradient9209"
       id="linearGradient822-63-9"
       x1="4.6862917"
       y1="35.595917"
       x2="27.313709"
       y2="-3.5959179"
       gradientUnits="userSpaceOnUse"
       gradientTransform="translate(3.5961212,-4.687269)" />
    <linearGradient
       id="linearGradient9209"
       inkscape:collect="always">
      <stop
         id="stop9205"
         offset="0"
         style="stop-color:#0064d9;stop-opacity:1" />
      <stop
         id="stop9207"
         offset="1"
         style="stop-color:#22c8ff;stop-opacity:1" />
    </linearGradient>
  </defs>
  <sodipodi:namedview
     id="namedview1"
     showgrid="true"
     inkscape:zoom="14.75"
     inkscape:cx="14.077971"
     inkscape:cy="16.686316"
     inkscape:window-width="2560"
     inkscape:window-height="1380"
     inkscape:window-x="0"
     inkscape:window-y="24"
     inkscape:window-maximized="1"
     inkscape:current-layer="svg2"
     inkscape:document-rotation="0">
    <inkscape:grid
       type="xygrid"
       id="grid1px"
       empspacing="4" />
    <inkscape:grid
       type="xygrid"
       id="grid1pxdot"
       empspacing="1"
       dotted="true"
       originy="0.5"
       originx="0.5" />
  </sodipodi:namedview>
  <circle
     style="opacity:1;fill:url(#linearGradient822-63-9);fill-opacity:1;stroke:none;stroke-width:0.99999994;stroke-linecap:round;stroke-linejoin:round;stroke-miterlimit:4;stroke-dasharray:none;stroke-dashoffset:0;stroke-opacity:1;paint-order:normal"
     id="path814-5-7"
     cx="19.595915"
     cy="11.31231"
     r="15.999999"
     transform="rotate(15)" />
  <path
     style="opacity:1;fill:#000000;fill-opacity:1;stroke:none;stroke-width:1.3619839;stroke-linecap:round;stroke-linejoin:round;stroke-miterlimit:4;stroke-dasharray:none;stroke-dashoffset:0;stroke-opacity:1;paint-order:normal"
     d="m 17.035349,12.135935 c -2.140497,-0.573543 -4.325442,0.68795 -4.898986,2.828372 L 8.1322187,29.907916 a 16,16 0 0 0 3.7267273,1.546432 16,16 0 0 0 19.596019,-11.3136 16,16 0 0 0 0.531591,-3.998665 z"
     id="rect824-9-5"
     inkscape:connector-curvature="0" />
  <g
     aria-label="รท"
     transform="rotate(15)"
     id="text881-6-8"
     style="font-style:normal;font-variant:normal;font-weight:normal;font-stretch:normal;font-size:15.3607px;line-height:1.25;font-family:Contemporary;-inkscape-font-specification:Contemporary;letter-spacing:0px;word-spacing:0px;fill:#ffffff;fill-opacity:1;stroke:none;stroke-width:0.384018">
    <path
       d="m 24.25899,12.984318 q 0.168968,0 0.291854,0.122886 0.122885,0.122885 0.122885,0.291853 v 1.029167 q 0,0.168968 -0.122885,0.291853 -0.122886,0.122886 -0.291854,0.122886 h -1.029166 q -0.168968,0 -0.291854,-0.122886 -0.122885,-0.122885 -0.122885,-0.291853 v -1.029167 q 0,-0.168968 0.122885,-0.291853 0.122886,-0.122886 0.291854,-0.122886 z m -3.394714,4.285635 q -0.168968,0 -0.291853,-0.122885 -0.122886,-0.122886 -0.122886,-0.291853 v -0.491543 q 0,-0.168968 0.122886,-0.291853 0.122885,-0.122886 0.291853,-0.122886 h 5.760262 q 0.168968,0 0.291853,0.122886 0.122886,0.122885 0.122886,0.291853 v 0.491543 q 0,0.168967 -0.122886,0.291853 -0.122885,0.122885 -0.291853,0.122885 z m 3.394714,1.09061 q 0.168968,0 0.291854,0.122886 0.122885,0.122885 0.122885,0.291853 v 1.029167 q 0,0.168968 -0.122885,0.291853 -0.122886,0.122886 -0.291854,0.122886 h -1.029166 q -0.168968,0 -0.291854,-0.122886 -0.122885,-0.122885 -0.122885,-0.291853 v -1.029167 q 0,-0.168968 0.122885,-0.291853 0.122886,-0.122886 0.291854,-0.122886 z"
       style="stroke-width:0.384018"
       id="path5276" />
  </g>
</svg>
